<svg xmlns="http://www.w3.org/2000/svg" viewBox="0 0 369.41 440.66"><g id="Layer_2" data-name="Layer 2"><path d="M303,236l-40,40-26-8-20-36c-3-4-8.05-5.53-12-4-5.09,2-8,8.87-5,15l25,39,28,10-3,10-36-10-34-21a9.17,9.17,0,0,0-10,15l38,22,34,10q-1,7-2,14l-27-4-45,6a9.27,9.27,0,0,0-5,11,9.11,9.11,0,0,0,8,6l45-5,17,3q-2,12.5-4,25c-.42-.15-7.23-2.5-13,2-3.93,3.06-4.43,8-5,13a34.76,34.76,0,0,0,1,13,12.26,12.26,0,0,0-9,2,12.47,12.47,0,0,0-5,9v14l-63,3c-.18,2.74-.75,16,9,27a36.64,36.64,0,0,0,18,11,62.38,62.38,0,0,0,24,33c21.69,14.85,45.05,9.91,49,9a34.12,34.12,0,0,0,45,3l-27.5-55.5c11.1-3.77,17.77-11.43,17-18a10.62,10.62,0,0,0-3-6c9.55-1.48,17.07-7.85,19-16a20.56,20.56,0,0,0-2-14l17-16,14,17,15,37c2.25,5.3,8.48,7.4,13,5a9.52,9.52,0,0,0,4-12q-8.5-20-17-40l-16-20,11-11,28,29,33,18a9.17,9.17,0,0,0,13-2c2.74-4.19,1.12-10.53-4-13l-33-19-27-26,7-8,21,19,51,1a8.66,8.66,0,0,0,0-17l-43-1-20-17a171.75,171.75,0,0,0,15-57c9.69-8.8,13.49-17.8,11-21-2.21-2.85-9.88-1.74-18,2a39.59,39.59,0,0,0-35-21c-1.7-8.59-6.07-14.94-10-15C309,215.43,303.17,223.47,303,236Z" transform="translate(-134.93 -79.41)"/><path d="M300,154c-7.43-4.92,19-55.4,30.39-60.91,3.87-1.87,6.45-3.94,11.61-8.09,2.61-2.1,3.16-2.8,3.07-3.48-.4-3.22-17.21-1.89-22.07-1.52-5.7.44-47.75,3.75-73,29-39.56,39.57-11.45,118.34-8,128a170.33,170.33,0,0,0,13,28l27-31q-2.75-13.75-5.5-27.5a80.71,80.71,0,0,0,32-16c25.82-21.51,34.39-57.95,28-62C329.6,124.13,306.34,158.19,300,154Z" transform="translate(-134.93 -79.41)"/><path d="M437.76,235.09c7.95,4,38.85-43.82,38-56.48-.29-4.29.24-7.55,1.31-14.09.54-3.31.88-4.13,1.51-4.39,3-1.23,10.14,14.05,12.21,18.46,2.43,5.18,20.28,43.38,10.77,77.8-14.91,53.93-97.31,68.33-107.41,70.09a169.91,169.91,0,0,1-30.77,2.5L377,290.2l26.64-8.78a80.54,80.54,0,0,1-1.86-35.73c6-33.07,33.45-58.5,40.13-54.93C449.15,194.61,431,231.64,437.76,235.09Z" transform="translate(-134.93 -79.41)"/></g></svg>